<?xml version="1.0" encoding="UTF-8" standalone="no"?><!DOCTYPE svg PUBLIC "-//W3C//DTD SVG 1.1//EN" "http://www.w3.org/Graphics/SVG/1.1/DTD/svg11.dtd"><!-- Generated by graphviz version 2.40.1 (20161225.0304)
 --><!-- Title: Adder Pages: 1 --><svg xmlns="http://www.w3.org/2000/svg" xmlns:xlink="http://www.w3.org/1999/xlink" width="342pt" height="373pt" viewBox="0.00 0.00 342.50 372.80">
<g id="graph0" class="graph" transform="scale(1 1) rotate(0) translate(4 368.8049)">
<title>Adder</title>
<polygon fill="#ffffff" stroke="transparent" points="-4,4 -4,-368.8049 338.4964,-368.8049 338.4964,4 -4,4"/>
<!-- A -->
<g id="node1" class="node">
<title>A</title>
<ellipse fill="none" stroke="#000000" cx="50.461" cy="-263.5171" rx="50.422" ry="50.422"/>
<text text-anchor="middle" x="50.461" y="-259.3171" font-family="Times,serif" font-size="14.00" fill="#000000">A. A1Init.</text>
</g>
<!-- A&#45;&gt;A -->
<g id="edge2" class="edge">
<title>A-&gt;A</title>
<path fill="none" stroke="#000000" d="M100.6116,-270.0492C111.2439,-269.3859 118.922,-267.2085 118.922,-263.5171 118.922,-261.1523 115.7709,-259.4088 110.7107,-258.2868"/>
<polygon fill="#000000" stroke="#000000" points="110.9771,-254.7922 100.6116,-256.985 110.0821,-261.7348 110.9771,-254.7922"/>
<text text-anchor="middle" x="123.5903" y="-259.3171" font-family="Times,serif" font-size="14.00" fill="#000000">R</text>
</g>
<!-- B -->
<g id="node2" class="node">
<title>B</title>
<ellipse fill="none" stroke="#000000" cx="205.2553" cy="-50.461" rx="50.422" ry="50.422"/>
<text text-anchor="middle" x="205.2553" y="-46.261" font-family="Times,serif" font-size="14.00" fill="#000000">B. A1Intr.</text>
</g>
<!-- A&#45;&gt;B -->
<g id="edge1" class="edge">
<title>A-&gt;B</title>
<path fill="none" stroke="#000000" d="M84.7225,-225.6459C111.5887,-191.4042 148.5408,-140.7255 174.4753,-102.656"/>
<polygon fill="#000000" stroke="#000000" points="177.459,-104.4918 180.1614,-94.2473 171.6603,-100.5706 177.459,-104.4918"/>
<text text-anchor="middle" x="120.2686" y="-168.3509" font-family="Times,serif" font-size="14.00" fill="#000000">0-9</text>
</g>
<!-- B&#45;&gt;A -->
<g id="edge5" class="edge">
<title>B-&gt;A</title>
<path fill="none" stroke="#000000" d="M170.9938,-88.3322C144.1276,-122.5739 107.1755,-173.2526 81.241,-211.3221"/>
<polygon fill="#000000" stroke="#000000" points="78.2573,-209.4863 75.5549,-219.7307 84.056,-213.4075 78.2573,-209.4863"/>
<text text-anchor="middle" x="121.4491" y="-137.2271" font-family="Times,serif" font-size="14.00" fill="#000000">R</text>
</g>
<!-- B&#45;&gt;B -->
<g id="edge3" class="edge">
<title>B-&gt;B</title>
<path fill="none" stroke="#000000" d="M255.406,-56.993C266.0383,-56.3297 273.7163,-54.1524 273.7163,-50.461 273.7163,-48.0962 270.5652,-46.3527 265.505,-45.2307"/>
<polygon fill="#000000" stroke="#000000" points="265.7714,-41.7361 255.406,-43.9289 264.8764,-48.6787 265.7714,-41.7361"/>
<text text-anchor="middle" x="283.0466" y="-46.261" font-family="Times,serif" font-size="14.00" fill="#000000">0-9</text>
</g>
<!-- C -->
<g id="node3" class="node">
<title>C</title>
<ellipse fill="none" stroke="#000000" cx="50.461" cy="-100.7567" rx="49.8598" ry="49.8598"/>
<text text-anchor="middle" x="50.461" y="-96.5567" font-family="Times,serif" font-size="14.00" fill="#000000">C. A2Init.</text>
</g>
<!-- B&#45;&gt;C -->
<g id="edge4" class="edge">
<title>B-&gt;C</title>
<path fill="none" stroke="#000000" d="M157.1259,-66.0992C141.5447,-71.1618 124.1075,-76.8275 107.9193,-82.0874"/>
<polygon fill="#000000" stroke="#000000" points="106.4579,-78.882 98.0289,-85.301 108.621,-85.5394 106.4579,-78.882"/>
<text text-anchor="middle" x="128.5753" y="-78.2933" font-family="Times,serif" font-size="14.00" fill="#000000">+</text>
</g>
<!-- C&#45;&gt;A -->
<g id="edge7" class="edge">
<title>C-&gt;A</title>
<path fill="none" stroke="#000000" d="M50.461,-150.9183C50.461,-167.2392 50.461,-185.5346 50.461,-202.5559"/>
<polygon fill="#000000" stroke="#000000" points="46.9611,-202.9604 50.461,-212.9604 53.9611,-202.9605 46.9611,-202.9604"/>
<text text-anchor="middle" x="45.7927" y="-180.9371" font-family="Times,serif" font-size="14.00" fill="#000000">R</text>
</g>
<!-- D -->
<g id="node4" class="node">
<title>D</title>
<ellipse fill="none" stroke="#000000" cx="205.2553" cy="-313.8128" rx="50.9842" ry="50.9842"/>
<text text-anchor="middle" x="205.2553" y="-309.6128" font-family="Times,serif" font-size="14.00" fill="#000000">D. A2Intr.</text>
</g>
<!-- C&#45;&gt;D -->
<g id="edge6" class="edge">
<title>C-&gt;D</title>
<path fill="none" stroke="#000000" d="M79.941,-141.3324C105.3034,-176.2409 141.9837,-226.7269 169.111,-264.0644"/>
<polygon fill="#000000" stroke="#000000" points="166.3835,-266.265 175.093,-272.2979 172.0467,-262.1505 166.3835,-266.265"/>
<text text-anchor="middle" x="115.1957" y="-206.8984" font-family="Times,serif" font-size="14.00" fill="#000000">0-9</text>
</g>
<!-- D&#45;&gt;A -->
<g id="edge10" class="edge">
<title>D-&gt;A</title>
<path fill="none" stroke="#000000" d="M156.7021,-298.0369C141.3563,-293.0508 124.245,-287.491 108.3156,-282.3152"/>
<polygon fill="#000000" stroke="#000000" points="109.1685,-278.9122 98.5763,-279.1507 107.0053,-285.5696 109.1685,-278.9122"/>
<text text-anchor="middle" x="127.8406" y="-294.3761" font-family="Times,serif" font-size="14.00" fill="#000000">R</text>
</g>
<!-- D&#45;&gt;D -->
<g id="edge8" class="edge">
<title>D-&gt;D</title>
<path fill="none" stroke="#000000" d="M256.1004,-320.3255C266.6565,-319.64 274.2474,-317.4691 274.2474,-313.8128 274.2474,-311.4705 271.1321,-309.7378 266.1176,-308.6147"/>
<polygon fill="#000000" stroke="#000000" points="266.4708,-305.1311 256.1004,-307.3001 265.5599,-312.0716 266.4708,-305.1311"/>
<text text-anchor="middle" x="283.5777" y="-309.6128" font-family="Times,serif" font-size="14.00" fill="#000000">0-9</text>
</g>
<!-- E -->
<g id="node5" class="node">
<title>E</title>
<ellipse fill="none" stroke="#000000" cx="300.9235" cy="-182.1369" rx="33.646" ry="33.646"/>
<text text-anchor="middle" x="300.9235" y="-177.9369" font-family="Times,serif" font-size="14.00" fill="#000000">E. RS</text>
</g>
<!-- D&#45;&gt;E -->
<g id="edge9" class="edge">
<title>D-&gt;E</title>
<path fill="none" stroke="#000000" d="M235.2628,-272.511C247.9553,-255.0413 262.6019,-234.8821 274.8368,-218.0421"/>
<polygon fill="#000000" stroke="#000000" points="277.9457,-219.7177 280.992,-209.5702 272.2825,-215.6031 277.9457,-219.7177"/>
<text text-anchor="middle" x="251.1025" y="-249.4765" font-family="Times,serif" font-size="14.00" fill="#000000">=</text>
</g>
<!-- E&#45;&gt;A -->
<g id="edge11" class="edge">
<title>E-&gt;A</title>
<path fill="none" stroke="#000000" d="M268.9478,-192.5264C228.5189,-205.6626 158.1749,-228.5187 108.2334,-244.7457"/>
<polygon fill="#000000" stroke="#000000" points="106.9611,-241.4789 98.5321,-247.8978 109.1242,-248.1363 106.9611,-241.4789"/>
<text text-anchor="middle" x="183.9223" y="-222.8361" font-family="Times,serif" font-size="14.00" fill="#000000">R</text>
</g>
</g>
</svg>