<?xml version="1.0" encoding="UTF-8" standalone="no"?><!DOCTYPE svg PUBLIC "-//W3C//DTD SVG 1.1//EN" "http://www.w3.org/Graphics/SVG/1.1/DTD/svg11.dtd"><!-- Generated by graphviz version 2.40.1 (20161225.0304)
 --><!-- Title: Adder Pages: 1 --><svg xmlns="http://www.w3.org/2000/svg" xmlns:xlink="http://www.w3.org/1999/xlink" width="273pt" height="690pt" viewBox="0.00 0.00 272.80 690.03">
<g id="graph0" class="graph" transform="scale(1 1) rotate(0) translate(4 686.0337)">
<title>Adder</title>
<polygon fill="#ffffff" stroke="transparent" points="-4,4 -4,-686.0337 268.7976,-686.0337 268.7976,4 -4,4"/>
<!-- A -->
<g id="node1" class="node">
<title>A</title>
<ellipse fill="none" stroke="#000000" cx="172.461" cy="-631.5727" rx="50.422" ry="50.422"/>
<text text-anchor="middle" x="172.461" y="-627.3727" font-family="Times,serif" font-size="14.00" fill="#000000">A. A1Init.</text>
</g>
<!-- A&#45;&gt;A -->
<g id="edge2" class="edge">
<title>A-&gt;A</title>
<path fill="none" stroke="#000000" d="M221.0732,-645.5409C232.4953,-644.3929 240.922,-639.7368 240.922,-631.5727 240.922,-626.0875 237.118,-622.1858 231.1574,-619.8677"/>
<polygon fill="#000000" stroke="#000000" points="231.5969,-616.3794 221.0732,-617.6045 230.064,-623.2095 231.5969,-616.3794"/>
<text text-anchor="middle" x="245.5903" y="-627.3727" font-family="Times,serif" font-size="14.00" fill="#000000">R</text>
</g>
<!-- B -->
<g id="node2" class="node">
<title>B</title>
<ellipse fill="none" stroke="#000000" cx="50.461" cy="-477.8508" rx="50.422" ry="50.422"/>
<text text-anchor="middle" x="50.461" y="-473.6508" font-family="Times,serif" font-size="14.00" fill="#000000">B. A1Intr.</text>
</g>
<!-- A&#45;&gt;B -->
<g id="edge1" class="edge">
<title>A-&gt;B</title>
<path fill="none" stroke="#000000" d="M131.6217,-601.1745C118.5104,-590.141 104.6013,-576.9585 93.8004,-563.1117 86.7703,-554.0992 80.3874,-543.7689 74.8118,-533.4812"/>
<polygon fill="#000000" stroke="#000000" points="77.8492,-531.7361 70.124,-524.4855 71.6416,-534.9711 77.8492,-531.7361"/>
<text text-anchor="middle" x="103.7913" y="-550.5117" font-family="Times,serif" font-size="14.00" fill="#000000">0-9</text>
</g>
<!-- B&#45;&gt;A -->
<g id="edge5" class="edge">
<title>B-&gt;A</title>
<path fill="none" stroke="#000000" d="M85.4231,-514.7902C94.4813,-524.8053 104.0484,-535.7923 112.461,-546.3117 121.1938,-557.2316 130.1197,-569.3249 138.3269,-580.889"/>
<polygon fill="#000000" stroke="#000000" points="135.5489,-583.0233 144.163,-589.1916 141.2757,-578.9978 135.5489,-583.0233"/>
<text text-anchor="middle" x="129.1293" y="-550.5117" font-family="Times,serif" font-size="14.00" fill="#000000">R</text>
</g>
<!-- B&#45;&gt;B -->
<g id="edge3" class="edge">
<title>B-&gt;B</title>
<path fill="none" stroke="#000000" d="M99.0732,-491.819C110.4953,-490.6709 118.922,-486.0148 118.922,-477.8508 118.922,-472.3655 115.118,-468.4639 109.1574,-466.1458"/>
<polygon fill="#000000" stroke="#000000" points="109.5969,-462.6574 99.0732,-463.8826 108.064,-469.4875 109.5969,-462.6574"/>
<text text-anchor="middle" x="128.2523" y="-473.6508" font-family="Times,serif" font-size="14.00" fill="#000000">0-9</text>
</g>
<!-- C -->
<g id="node3" class="node">
<title>C</title>
<ellipse fill="none" stroke="#000000" cx="131.461" cy="-324.6599" rx="49.8598" ry="49.8598"/>
<text text-anchor="middle" x="131.461" y="-320.4599" font-family="Times,serif" font-size="14.00" fill="#000000">C. A2Init.</text>
</g>
<!-- B&#45;&gt;C -->
<g id="edge4" class="edge">
<title>B-&gt;C</title>
<path fill="none" stroke="#000000" d="M74.1073,-433.1298C83.2133,-415.908 93.7029,-396.0697 103.2011,-378.1063"/>
<polygon fill="#000000" stroke="#000000" points="106.4849,-379.3835 108.0651,-368.9072 100.2966,-376.1115 106.4849,-379.3835"/>
<text text-anchor="middle" x="97.4083" y="-396.7898" font-family="Times,serif" font-size="14.00" fill="#000000">+</text>
</g>
<!-- C&#45;&gt;A -->
<g id="edge7" class="edge">
<title>C-&gt;A</title>
<path fill="none" stroke="#000000" d="M138.2656,-374.2938C140.5651,-391.1452 143.1377,-410.0851 145.461,-427.3898 151.9526,-475.7419 159.1939,-530.5519 164.5419,-571.2019"/>
<polygon fill="#000000" stroke="#000000" points="161.0851,-571.7607 165.8591,-581.219 168.0254,-570.848 161.0851,-571.7607"/>
<text text-anchor="middle" x="163.1293" y="-473.6508" font-family="Times,serif" font-size="14.00" fill="#000000">R</text>
</g>
<!-- D -->
<g id="node4" class="node">
<title>D</title>
<ellipse fill="none" stroke="#000000" cx="140.461" cy="-170.938" rx="50.9842" ry="50.9842"/>
<text text-anchor="middle" x="140.461" y="-166.738" font-family="Times,serif" font-size="14.00" fill="#000000">D. A2Intr.</text>
</g>
<!-- C&#45;&gt;D -->
<g id="edge6" class="edge">
<title>C-&gt;D</title>
<path fill="none" stroke="#000000" d="M134.383,-274.7508C135.1802,-261.1356 136.0529,-246.2285 136.8821,-232.066"/>
<polygon fill="#000000" stroke="#000000" points="140.3859,-232.1016 137.4765,-221.9141 133.3979,-231.6924 140.3859,-232.1016"/>
<text text-anchor="middle" x="144.7913" y="-244.1301" font-family="Times,serif" font-size="14.00" fill="#000000">0-9</text>
</g>
<!-- D&#45;&gt;A -->
<g id="edge10" class="edge">
<title>D-&gt;A</title>
<path fill="none" stroke="#000000" d="M166.9823,-214.7927C176.3584,-232.713 185.7419,-254.0605 190.461,-274.7301 213.8525,-377.1847 198.4001,-500.3171 185.2722,-571.8871"/>
<polygon fill="#000000" stroke="#000000" points="181.7669,-571.5891 183.357,-582.0639 188.6461,-572.8837 181.7669,-571.5891"/>
<text text-anchor="middle" x="207.1293" y="-396.7898" font-family="Times,serif" font-size="14.00" fill="#000000">R</text>
</g>
<!-- D&#45;&gt;D -->
<g id="edge8" class="edge">
<title>D-&gt;D</title>
<path fill="none" stroke="#000000" d="M189.7635,-184.874C201.1147,-183.6731 209.4531,-179.0278 209.4531,-170.938 209.4531,-165.5026 205.689,-161.6221 199.7761,-159.2966"/>
<polygon fill="#000000" stroke="#000000" points="200.2926,-155.8243 189.7635,-157.0019 198.7289,-162.6474 200.2926,-155.8243"/>
<text text-anchor="middle" x="218.7834" y="-166.738" font-family="Times,serif" font-size="14.00" fill="#000000">0-9</text>
</g>
<!-- E -->
<g id="node5" class="node">
<title>E</title>
<ellipse fill="none" stroke="#000000" cx="197.461" cy="-33.5729" rx="33.646" ry="33.646"/>
<text text-anchor="middle" x="197.461" y="-29.3729" font-family="Times,serif" font-size="14.00" fill="#000000">E. RS</text>
</g>
<!-- D&#45;&gt;E -->
<g id="edge9" class="edge">
<title>D-&gt;E</title>
<path fill="none" stroke="#000000" d="M160.0772,-123.6647C166.7442,-107.5976 174.132,-89.7938 180.5675,-74.2847"/>
<polygon fill="#000000" stroke="#000000" points="183.8365,-75.5386 184.4365,-64.9608 177.3711,-72.8557 183.8365,-75.5386"/>
<text text-anchor="middle" x="179.4083" y="-89.3458" font-family="Times,serif" font-size="14.00" fill="#000000">=</text>
</g>
<!-- E&#45;&gt;A -->
<g id="edge11" class="edge">
<title>E-&gt;A</title>
<path fill="none" stroke="#000000" d="M216.7741,-61.0792C233.6464,-87.8388 255.461,-130.2957 255.461,-170.938 255.461,-477.8508 255.461,-477.8508 255.461,-477.8508 255.461,-517.4634 233.857,-556.6686 212.6931,-585.5714"/>
<polygon fill="#000000" stroke="#000000" points="209.6965,-583.7315 206.4597,-593.8199 215.2812,-587.9519 209.6965,-583.7315"/>
<text text-anchor="middle" x="260.1293" y="-320.4599" font-family="Times,serif" font-size="14.00" fill="#000000">R</text>
</g>
</g>
</svg>