<?xml version="1.0" encoding="UTF-8" standalone="no"?><!DOCTYPE svg PUBLIC "-//W3C//DTD SVG 1.1//EN" "http://www.w3.org/Graphics/SVG/1.1/DTD/svg11.dtd"><!-- Generated by graphviz version 2.40.1 (20161225.0304)
 --><!-- Title: Adder Pages: 1 --><svg xmlns="http://www.w3.org/2000/svg" xmlns:xlink="http://www.w3.org/1999/xlink" width="312pt" height="307pt" viewBox="0.00 0.00 312.37 307.00">
<g id="graph0" class="graph" transform="scale(1 1) rotate(0) translate(4 303)">
<title>Adder</title>
<polygon fill="#ffffff" stroke="transparent" points="-4,4 -4,-303 308.366,-303 308.366,4 -4,4"/>
<!-- A -->
<g id="node1" class="node">
<title>A</title>
<ellipse fill="none" stroke="#000000" cx="226.5684" cy="-162.9484" rx="50.422" ry="50.422"/>
<text text-anchor="middle" x="226.5684" y="-158.7484" font-family="Times,serif" font-size="14.00" fill="#000000">A. A1Init.</text>
</g>
<!-- A&#45;&gt;A -->
<g id="edge2" class="edge">
<title>A-&gt;A</title>
<path fill="none" stroke="#000000" d="M276.719,-169.4805C287.3513,-168.8172 295.0294,-166.6398 295.0294,-162.9484 295.0294,-160.5836 291.8783,-158.8402 286.8181,-157.7181"/>
<polygon fill="#000000" stroke="#000000" points="287.0845,-154.2236 276.719,-156.4164 286.1895,-161.1661 287.0845,-154.2236"/>
<text text-anchor="middle" x="299.6977" y="-158.7484" font-family="Times,serif" font-size="14.00" fill="#000000">R</text>
</g>
<!-- B -->
<g id="node2" class="node">
<title>B</title>
<ellipse fill="none" stroke="#000000" cx="210.9891" cy="-50.8529" rx="50.422" ry="50.422"/>
<text text-anchor="middle" x="210.9891" y="-46.6529" font-family="Times,serif" font-size="14.00" fill="#000000">B. A1Intr.</text>
</g>
<!-- A&#45;&gt;B -->
<g id="edge1" class="edge">
<title>A-&gt;B</title>
<path fill="none" stroke="#000000" d="M226.2933,-112.2048C226.1762,-111.2823 226.0564,-110.358 225.934,-109.4326"/>
<polygon fill="#000000" stroke="#000000" points="229.399,-108.9385 224.5289,-99.5293 222.4684,-109.9218 229.399,-108.9385"/>
<text text-anchor="middle" x="235.4439" y="-98.2187" font-family="Times,serif" font-size="14.00" fill="#000000">0-9</text>
</g>
<!-- B&#45;&gt;A -->
<g id="edge5" class="edge">
<title>B-&gt;A</title>
<path fill="none" stroke="#000000" d="M211.2642,-101.5965C211.3813,-102.519 211.5011,-103.4433 211.6235,-104.3687"/>
<polygon fill="#000000" stroke="#000000" points="208.1585,-104.8628 213.0286,-114.272 215.0891,-103.8795 208.1585,-104.8628"/>
<text text-anchor="middle" x="206.7756" y="-107.1826" font-family="Times,serif" font-size="14.00" fill="#000000">R</text>
</g>
<!-- B&#45;&gt;B -->
<g id="edge3" class="edge">
<title>B-&gt;B</title>
<path fill="none" stroke="#000000" d="M261.1398,-57.3849C271.7721,-56.7216 279.4501,-54.5443 279.4501,-50.8529 279.4501,-48.4881 276.2991,-46.7446 271.2389,-45.6225"/>
<polygon fill="#000000" stroke="#000000" points="271.5052,-42.128 261.1398,-44.3208 270.6103,-49.0706 271.5052,-42.128"/>
<text text-anchor="middle" x="288.7804" y="-46.6529" font-family="Times,serif" font-size="14.00" fill="#000000">0-9</text>
</g>
<!-- C -->
<g id="node3" class="node">
<title>C</title>
<ellipse fill="none" stroke="#000000" cx="95.3915" cy="-61.7901" rx="49.8598" ry="49.8598"/>
<text text-anchor="middle" x="95.3915" y="-57.5901" font-family="Times,serif" font-size="14.00" fill="#000000">C. A2Init.</text>
</g>
<!-- B&#45;&gt;C -->
<g id="edge4" class="edge">
<title>B-&gt;C</title>
<path fill="none" stroke="#000000" d="M160.6226,-55.6183C158.8658,-55.7845 157.0997,-55.9516 155.3309,-56.1189"/>
<polygon fill="#000000" stroke="#000000" points="154.8432,-52.6494 145.2173,-57.0758 155.5026,-59.6182 154.8432,-52.6494"/>
<text text-anchor="middle" x="154.0294" y="-60.0686" font-family="Times,serif" font-size="14.00" fill="#000000">+</text>
</g>
<!-- C&#45;&gt;A -->
<g id="edge7" class="edge">
<title>C-&gt;A</title>
<path fill="none" stroke="#000000" d="M135.1049,-92.4154C148.7207,-102.9154 164.1083,-114.7817 178.3246,-125.7447"/>
<polygon fill="#000000" stroke="#000000" points="176.4811,-128.7429 186.5373,-132.0781 180.7558,-123.1997 176.4811,-128.7429"/>
<text text-anchor="middle" x="152.0464" y="-113.2801" font-family="Times,serif" font-size="14.00" fill="#000000">R</text>
</g>
<!-- D -->
<g id="node4" class="node">
<title>D</title>
<ellipse fill="none" stroke="#000000" cx="50.9234" cy="-177.5223" rx="50.9842" ry="50.9842"/>
<text text-anchor="middle" x="50.9234" y="-173.3223" font-family="Times,serif" font-size="14.00" fill="#000000">D. A2Intr.</text>
</g>
<!-- C&#45;&gt;D -->
<g id="edge6" class="edge">
<title>C-&gt;D</title>
<path fill="none" stroke="#000000" d="M77.4328,-108.5292C75.9564,-112.3717 74.4539,-116.2822 72.9526,-120.1894"/>
<polygon fill="#000000" stroke="#000000" points="69.5585,-119.2645 69.2389,-129.8545 76.0928,-121.7752 69.5585,-119.2645"/>
<text text-anchor="middle" x="84.523" y="-118.5593" font-family="Times,serif" font-size="14.00" fill="#000000">0-9</text>
</g>
<!-- D&#45;&gt;A -->
<g id="edge10" class="edge">
<title>D-&gt;A</title>
<path fill="none" stroke="#000000" d="M102.1994,-173.2677C122.2136,-171.6071 145.31,-169.6907 166.1261,-167.9635"/>
<polygon fill="#000000" stroke="#000000" points="166.4619,-171.4478 176.1382,-167.1328 165.883,-164.4718 166.4619,-171.4478"/>
<text text-anchor="middle" x="138.831" y="-158.0156" font-family="Times,serif" font-size="14.00" fill="#000000">R</text>
</g>
<!-- D&#45;&gt;D -->
<g id="edge8" class="edge">
<title>D-&gt;D</title>
<path fill="none" stroke="#000000" d="M101.7684,-184.035C112.3246,-183.3494 119.9155,-181.1785 119.9155,-177.5223 119.9155,-175.18 116.8002,-173.4473 111.7857,-172.3242"/>
<polygon fill="#000000" stroke="#000000" points="112.1389,-168.8406 101.7684,-171.0096 111.228,-175.7811 112.1389,-168.8406"/>
<text text-anchor="middle" x="129.2458" y="-173.3223" font-family="Times,serif" font-size="14.00" fill="#000000">0-9</text>
</g>
<!-- E -->
<g id="node5" class="node">
<title>E</title>
<ellipse fill="none" stroke="#000000" cx="160.0858" cy="-265.4539" rx="33.646" ry="33.646"/>
<text text-anchor="middle" x="160.0858" y="-261.2539" font-family="Times,serif" font-size="14.00" fill="#000000">E. RS</text>
</g>
<!-- D&#45;&gt;E -->
<g id="edge9" class="edge">
<title>D-&gt;E</title>
<path fill="none" stroke="#000000" d="M90.6423,-209.5164C102.2193,-218.8417 114.7619,-228.9449 125.9611,-237.966"/>
<polygon fill="#000000" stroke="#000000" points="123.8621,-240.7695 133.8454,-244.317 128.2533,-235.3181 123.8621,-240.7695"/>
<text text-anchor="middle" x="112.249" y="-227.9412" font-family="Times,serif" font-size="14.00" fill="#000000">=</text>
</g>
<!-- E&#45;&gt;A -->
<g id="edge11" class="edge">
<title>E-&gt;A</title>
<path fill="none" stroke="#000000" d="M178.4285,-237.1725C183.1139,-229.9484 188.2972,-221.9565 193.4757,-213.9721"/>
<polygon fill="#000000" stroke="#000000" points="196.5642,-215.6422 199.0693,-205.3477 190.6913,-211.8331 196.5642,-215.6422"/>
<text text-anchor="middle" x="181.2838" y="-212.9723" font-family="Times,serif" font-size="14.00" fill="#000000">R</text>
</g>
</g>
</svg>